# xmcd
#
# Track frame offsets:
#	150
#	17833
#	35885
#	52214
#	72875
#	88682
#	103282
#	123292
#	141565
#	157987
#	178948
#	199897
#
# Disc length: 2855 seconds
#
# Revision: 1
# Processed by: cddbd v1.5.2PL0 Copyright (c) Steve Scherf et al.
# Submitted via: audiograbber 1.83.01
#
DISCID=b90b250c
DTITLE=Chris Cagle - Back In The Saddle
DYEAR=2012
DGENRE=Country
TTITLE0=Got My Country On
TTITLE1=I'll Grow My Own
TTITLE2=Something That Wild
TTITLE3=Let There Be Cowgirls
TTITLE4=Dance Baby Dance
TTITLE5=When Will My Lover Come Around
TTITLE6=Southern Girl
TTITLE7=Probably Just Time
TTITLE8=Thank God She Left the Whiskey
TTITLE9=Now I Know What Mama Meant
TTITLE10=Just Enough
TTITLE11=Summer Again [*]
EXTD=
EXTT0=
EXTT1=
EXTT2=
EXTT3=
EXTT4=
EXTT5=
EXTT6=
EXTT7=
EXTT8=
EXTT9=
EXTT10=
EXTT11=
PLAYORDER=
